# xmcd
#
# Track frame offsets: 
#        150
#        15102
#        29748
#        53187
#        69063
#        81736
#
# Disc length: 1255 seconds
#
# Revision: 0
# Processed by: cddbd v1.5.2PL0 Copyright (c) Steve Scherf et al.
# Submitted via: ExactAudioCopy v1.3
#
DISCID=4404e506
DTITLE=The Liza Colby Sound - Live
DYEAR=2013
DGENRE=Blues
TTITLE0=All I Do
TTITLE1=Is This love My Home
TTITLE2=Draw
TTITLE3=Cannonball
TTITLE4=Codine
TTITLE5=Your Cool
EXTD=
EXTT0=
EXTT1=
EXTT2=
EXTT3=
EXTT4=
EXTT5=
PLAYORDER=
